:SAMPLES-PER-SECOND 30
:FULLY-SPECIFIED
:DEGREES
17
root  75.3601 40.4942 -0.451117 -169.5 -86.4453 169.031
RightUpLeg  1.76782 -8.1336 -6.29617
RightLeg  3.06164 -1.95825 3.08468
RightFoot  -2.84101 -0.0671717 0.678029
RightToes  5.82063e-011 0 -3.6325e-017
Spine  -0.238739 0.157791 1.84501
Spine1  4.94876 0.450756 -1.43469
HEad  -6.43597 1.72259 -2.21635
LeftShoulder1  0.942353 -2.67489 -7.64231
LeftArm  -13.9697 8.02973 2.62121
LeftForeArm  10.2707 -1.91736 -3.11743
LeftHand  -0.244104 0.0205437 5.32207
RightShoulder  0.64806 1.39462 5.46457
RightArm  -17.5531 1.28561 -1.31026
RightForeArm  2.36553 0.410271 4.03951
RightHand  -0.879576 2.63779 -12.8942
LeftUpLeg  2.33834 5.24872 3.40114
LeftLeg  0.467301 11.5853 -4.08286
LeftFoot  -2.45985 0.13076 -1.42506
LeftToes  4.36525e-011 -9.98543e-011 1.0027e-011
18
root  75.3524 40.4944 -0.462258 -169.674 -86.4978 169.227
RightUpLeg  1.79245 -8.11539 -6.25597
RightLeg  3.01185 -2.02576 3.09274
RightFoot  -2.84333 -0.0671616 0.677874
RightToes  5.82063e-011 0 -3.6325e-017
Spine  -0.312939 0.142288 1.77116
Spine1  5.04132 0.413678 -1.3357
HEad  -6.49669 1.79568 -2.32715
LeftShoulder1  0.932171 -2.5784 -7.72312
LeftArm  -14.1786 7.93898 2.60103
LeftForeArm  10.4478 -1.88291 -3.03579
LeftHand  -0.244104 0.0205437 5.32207
RightShoulder  0.641141 1.36669 5.38959
RightArm  -17.6134 1.31258 -1.27526
RightForeArm  2.05519 0.526827 4.06095
RightHand  -0.869386 2.54128 -12.8976
LeftUpLeg  2.30484 5.27613 3.44711
LeftLeg  0.512134 11.4967 -4.07917
LeftFoot  -2.48218 0.13225 -1.44822
LeftToes  4.36525e-011 -9.98543e-011 1.0027e-011
19
root  75.3467 40.4948 -0.471627 -169.75 -86.5618 169.313
RightUpLeg  1.82757 -8.09637 -6.2224
RightLeg  2.95796 -2.10771 3.09498
RightFoot  -2.83032 -0.067269 0.67954
RightToes  5.82063e-011 0 -3.6325e-017
Spine  -0.573017 0.0581395 1.924
Spine1  5.41685 0.38572 -1.60613
HEad  -6.62241 1.71146 -2.34505
LeftShoulder1  0.907895 -2.46833 -7.58219
LeftArm  -14.3988 7.93733 2.49617
LeftForeArm  10.5898 -1.87782 -2.9426
LeftHand  -0.244104 0.0205437 5.32207
RightShoulder  0.65455 1.43521 5.48993
RightArm  -17.7478 1.44853 -1.26835
RightForeArm  1.71215 0.388687 4.04083
RightHand  -0.858923 2.40676 -12.9553
LeftUpLeg  2.28218 5.30474 3.48911
LeftLeg  0.547078 11.3988 -4.08466
LeftFoot  -2.49223 0.133557 -1.46854
LeftToes  4.36525e-011 -9.98543e-011 1.0027e-011
20
root  75.3427 40.4959 -0.481861 -169.618 -86.5984 169.208
RightUpLeg  1.81417 -8.074 -6.19503
RightLeg  2.95009 -2.17099 3.08108
RightFoot  -2.82304 -0.0672973 0.679979
RightToes  5.82063e-011 0 -3.6325e-017
Spine  -0.72982 -0.0209228 2.12243
Spine1  5.64145 0.390731 -1.99345
HEad  -6.68558 1.6012 -2.24832
LeftShoulder1  0.872375 -2.3433 -7.2653
LeftArm  -14.5363 7.95809 2.26129
LeftForeArm  10.6786 -1.84819 -2.88302
LeftHand  -0.244104 0.0205437 5.32207
RightShoulder  0.66053 1.43084 5.63994
RightArm  -17.8982 1.64037 -1.21466
RightForeArm  1.89197 0.154769 3.97508
RightHand  -0.876514 2.52448 -13.0269
LeftUpLeg  2.26121 5.30958 3.50518
LeftLeg  0.532942 11.3554 -4.08988
LeftFoot  -2.47763 0.133924 -1.47425
LeftToes  4.36525e-011 -9.98543e-011 1.0027e-011
21
root  75.338 40.4965 -0.493072 -169.369 -86.6133 169.012
RightUpLeg  1.75937 -8.06466 -6.17543
RightLeg  2.96402 -2.20359 3.07682
RightFoot  -2.8195 -0.0646513 0.638911
RightToes  5.82063e-011 0 -3.6325e-017
Spine  -0.726297 -0.0377462 2.17653
Spine1  5.59775 0.413494 -2.16773
HEad  -6.65951 1.61137 -2.15376
LeftShoulder1  0.849971 -2.26929 -7.04461
LeftArm  -14.6336 7.92961 2.04755
LeftForeArm  10.8314 -1.7532 -2.8353
LeftHand  -0.244104 0.0205437 5.32207
RightShoulder  0.646885 1.31796 5.67316
RightArm  -18.0623 1.77803 -1.09523
RightForeArm  2.16247 -0.00685894 3.89949
RightHand  -0.884636 2.57639 -13.0631
LeftUpLeg  2.22703 5.27803 3.49173
LeftLeg  0.484096 11.3704 -4.07151
LeftFoot  -2.44589 0.133894 -1.47378
LeftToes  4.36525e-011 -9.98543e-011 1.0027e-011
22
root  75.3311 40.4969 -0.503806 -169.424 -86.6223 169.119
RightUpLeg  1.72316 -8.06255 -6.14822
RightLeg  2.95006 -2.22167 3.09518
RightFoot  -2.81792 -0.0601772 0.569468
RightToes  5.82063e-011 0 -3.6325e-017
Spine  -0.696264 -0.00674755 2.16463
Spine1  5.47639 0.451113 -2.19726
HEad  -6.55779 1.68855 -2.07308
LeftShoulder1  0.853075 -2.30702 -6.99801
LeftArm  -14.7334 7.88692 1.98842
LeftForeArm  11.1087 -1.62705 -2.77329
LeftHand  -0.244104 0.0205437 5.32207
RightShoulder  0.6367 1.2411 5.67615
RightArm  -18.1587 1.80518 -1.05266
RightForeArm  1.94689 -0.066614 3.87674
RightHand  -0.850025 2.28832 -13.013
LeftUpLeg  2.18974 5.24758 3.49017
LeftLeg  0.459971 11.3929 -4.03477
LeftFoot  -2.42894 0.135632 -1.50079
LeftToes  4.36525e-011 -9.98543e-011 1.0027e-011
23
root  75.323 40.4972 -0.514789 -170.002 -86.6209 169.717
RightUpLeg  1.73653 -8.03567 -6.09422
RightLeg  2.90756 -2.248 3.10664
RightFoot  -2.8173 -0.059201 0.554315
RightToes  5.82063e-011 0 -3.6325e-017
Spine  -0.61309 0.0249678 2.27481
Spine1  5.29035 0.52257 -2.3923
HEad  -6.35661 1.71083 -1.87361
LeftShoulder1  0.861317 -2.41021 -6.87032
LeftArm  -14.7705 7.91104 1.97545
LeftForeArm  11.4084 -1.55127 -2.73054
LeftHand  -0.244104 0.0205437 5.32207
RightShoulder  0.649936 1.26905 5.89944
RightArm  -18.0628 1.76485 -1.24568
RightForeArm  1.4468 -0.0446931 3.93688
RightHand  -0.808024 1.93077 -12.9609
LeftUpLeg  2.173 5.25889 3.53523
LeftLeg  0.490806 11.3861 -4.00537
LeftFoot  -2.44914 0.139627 -1.56291
LeftToes  4.36525e-011 -9.98543e-011 1.0027e-011
24
root  75.3149 40.4975 -0.527415 -170.601 -86.6121 170.313
RightUpLeg  1.76811 -7.99251 -6.03627
RightLeg  2.87237 -2.27832 3.09819
RightFoot  -2.82283 -0.0628107 0.610344
RightToes  5.82063e-011 0 -3.6325e-017
Spine  -0.475099 0.0262813 2.49285
Spine1  5.06635 0.606545 -2.79037
HEad  -6.1412 1.68308 -1.56172
LeftShoulder1  0.852489 -2.477 -6.5246
LeftArm  -14.71 8.00505 1.84833
LeftForeArm  11.5827 -1.56515 -2.73878
LeftHand  -0.244104 0.0205437 5.32207
RightShoulder  0.677591 1.33856 6.32242
RightArm  -17.8791 1.71731 -1.58554
RightForeArm  1.2868 0.0224524 4.00593
RightHand  -0.807517 1.88656 -13.0274
LeftUpLeg  2.17333 5.2906 3.59378
LeftLeg  0.538812 11.3616 -3.98993
LeftFoot  -2.48458 0.142993 -1.61522
LeftToes  4.36525e-011 -9.98543e-011 1.0027e-011
